<?xml version="1.0" encoding="utf-8"?>
<!-- Generator: Adobe Illustrator 16.0.3, SVG Export Plug-In . SVG Version: 6.00 Build 0)  -->
<!DOCTYPE svg PUBLIC "-//W3C//DTD SVG 1.1//EN" "http://www.w3.org/Graphics/SVG/1.1/DTD/svg11.dtd">
<svg version="1.1" id="Capa_1" xmlns="http://www.w3.org/2000/svg" xmlns:xlink="http://www.w3.org/1999/xlink" x="0px" y="0px"
	 width="1170px" height="800px" viewBox="0 0 1170 800" enable-background="new 0 0 1170 800" xml:space="preserve">
<g>
	<path fill="#FFFFFF" d="M647.983,800H475.83V441.311h-94.836V276.582h94.833V184.08C475.827,99.159,528.957,0,678.757,0
		c52.809,0,91.576,4.949,93.196,5.163l15.895,2.065l-3.828,154.159l-17.514-0.161c-0.036,0-39.391-0.374-82.321-0.374
		c-31.948,0-36.186,7.885-36.186,39.247v76.519h141.003l-7.813,164.729H648.016v358.653L647.983,800L647.983,800z M511.407,764.401
		h100.956V405.732h134.812l4.45-93.552H612.364V200.063c0-37.022,8.524-74.846,71.783-74.846c25.418,0,49.571,0.124,65.107,0.249
		l2.155-86.663c-15.717-1.407-41.864-3.204-72.691-3.204c-123.364,0-167.33,76.695-167.33,148.48V312.18h-94.83v93.552h94.833
		v358.669H511.407L511.407,764.401z"/>
</g>
</svg>
