<?xml version="1.0" encoding="utf-8"?>
<!-- Generator: Adobe Illustrator 16.0.3, SVG Export Plug-In . SVG Version: 6.00 Build 0)  -->
<!DOCTYPE svg PUBLIC "-//W3C//DTD SVG 1.1//EN" "http://www.w3.org/Graphics/SVG/1.1/DTD/svg11.dtd">
<svg version="1.1" id="Camada_1" xmlns="http://www.w3.org/2000/svg" xmlns:xlink="http://www.w3.org/1999/xlink" x="0px" y="0px"
	 width="50px" height="50px" viewBox="0 0 50 50" enable-background="new 0 0 50 50" xml:space="preserve">
<path fill="#FFFFFF" d="M16,3C8.833,3,3,8.833,3,16v18c0,7.168,5.833,13,13,13h18c7.168,0,13-5.832,13-13V16c0-7.167-5.832-13-13-13
	H16z M16,5h18c6.086,0,11,4.914,11,11v18c0,6.086-4.914,11-11,11H16C9.914,45,5,40.086,5,34V16C5,9.914,9.914,5,16,5z M37,11
	c-1.104,0-2,0.896-2,2s0.896,2,2,2s2-0.896,2-2S38.104,11,37,11z M25,14c-6.063,0-11,4.937-11,11s4.937,11,11,11s11-4.937,11-11
	S31.063,14,25,14z M25,16c4.982,0,9,4.018,9,9s-4.018,9-9,9s-9-4.018-9-9S20.018,16,25,16z"/>
</svg>
