<?xml version="1.0" encoding="utf-8"?>
<!-- Generator: Adobe Illustrator 16.0.3, SVG Export Plug-In . SVG Version: 6.00 Build 0)  -->
<!DOCTYPE svg PUBLIC "-//W3C//DTD SVG 1.1//EN" "http://www.w3.org/Graphics/SVG/1.1/DTD/svg11.dtd">
<svg version="1.1" id="Camada_1" xmlns="http://www.w3.org/2000/svg" xmlns:xlink="http://www.w3.org/1999/xlink" x="0px" y="0px"
	 width="350px" height="350px" viewBox="0 0 350 350" enable-background="new 0 0 350 350" xml:space="preserve">
<g>
	<path fill-rule="evenodd" clip-rule="evenodd" d="M20.419,60.554c-2.831,0-5.422,0-8.132,0c0-16.416,0-32.789,0-49.264
		c18.032,0,36.063,0,54.178,0c0,2.576,0,5.095,0,7.797c-15.267,0-30.536,0-46.046,0C20.419,33.026,20.419,46.788,20.419,60.554z"/>
	<path fill-rule="evenodd" clip-rule="evenodd" d="M285.068,338.71c0-2.027,0.104-3.893-0.031-5.739
		c-0.122-1.65,0.372-2.174,2.094-2.166c13.977,0.07,27.954,0.039,41.931,0.039c0.647,0,1.294,0,2.099,0c0-0.754,0-1.348,0-1.94
		c0-12.319,0-24.639,0-36.958c0-2.551,0-2.551,2.631-2.551c1.263,0,2.524,0,3.894,0c0,16.48,0,32.851,0,49.315
		C320.059,338.71,302.464,338.71,285.068,338.71z"/>
	<path fill-rule="evenodd" clip-rule="evenodd" d="M337.715,11.276c0,18.017,0,35.944,0,53.63c-1.766,0-3.459-0.083-5.14,0.026
		c-1.415,0.093-1.777-0.448-1.773-1.805c0.042-14.031,0.026-28.062,0.026-42.092c0-0.659,0-1.318,0-2.151
		c-13.795,0-27.515,0-41.342,0c0-2.623,0-5.071,0-7.608C305.525,11.276,321.524,11.276,337.715,11.276z"/>
	<path fill-rule="evenodd" clip-rule="evenodd" d="M12.285,287.156c2.312,0,4.501,0,6.81,0c0,15.312,0,30.542,0,45.953
		c13.842,0,27.564,0,41.386,0c0,1.965,0,3.75,0,5.614c-16.07,0-32.073,0-48.195,0C12.285,321.569,12.285,304.422,12.285,287.156z"/>
	<path fill-rule="evenodd" clip-rule="evenodd" d="M250.944,111.394c-1.021,0-1.612,0.008-2.204-0.002
		c-0.659-0.012-1.344-0.163-1.977-0.041c-2.945,0.564-4.6-1.251-6.23-3.214c-0.835-1.004-1.774-1.92-2.744-2.96
		c-4.23,1.177-8.534,0.632-12.474-1.274c-3.007-1.454-5.09-4.143-6.479-7.275c-1.805-4.073-2.005-8.32-0.666-12.437
		c1.786-5.497,6.523-9.594,12.844-10.313c4.274-0.486,8.261,0.274,11.816,2.923c3.681,2.742,5.64,6.438,6.05,10.893
		c0.307,3.317,0.169,6.682-1.615,9.673c-0.85,1.425-1.821,2.802-2.903,4.059c-1.487,1.73-1.184,1.711,0.232,3.26
		C246.546,106.819,248.565,108.888,250.944,111.394z M242.749,89.574c-0.151-1.019-0.29-2.04-0.454-3.056
		c-1.006-6.229-8.698-9.589-14.012-6.142c-4.359,2.829-5.54,8.131-4.013,13.377c1.51,5.186,5.134,6.462,9.611,6.367
		c2.075-0.044,3.929-0.46,5.528-1.952C241.937,95.814,242.612,92.848,242.749,89.574z"/>
	<path fill-rule="evenodd" clip-rule="evenodd" d="M221.403,136.212c5.78,0.335,11.398,0.313,16.898,1.112
		c3.275,0.477,5.654,4.209,5.103,7.985c-0.45,3.088-2.188,4.927-4.942,6.028c1.121,0.602,2.35,1.064,3.34,1.831
		c3.051,2.359,3.199,4.62,1.918,8.492c-1.013,3.069-3.613,5.024-6.972,5.343c-2.999,0.285-6.028,0.269-9.045,0.361
		c-1.716,0.052-3.439-0.012-5.148,0.106c-0.873,0.061-1.16-0.187-1.159-1.025C221.407,156.556,221.403,146.667,221.403,136.212z
		 M227.445,162.82c2.603-0.152,5.016-0.216,7.407-0.461c1.771-0.181,3.258-1.966,3.457-3.849c0.191-1.797-0.809-3.584-2.732-3.9
		c-2.658-0.436-5.392-0.42-8.132-0.599C227.445,157.074,227.445,159.814,227.445,162.82z M227.432,149.72
		c0.883-0.051,1.576-0.037,2.251-0.142c1.893-0.293,3.832-0.458,5.65-1.009c1.676-0.508,2.1-2.153,2.035-3.707
		c-0.062-1.47-0.759-2.881-2.354-3.125c-2.492-0.38-5.027-0.471-7.582-0.689C227.432,144.174,227.432,146.923,227.432,149.72z"/>
	<path fill-rule="evenodd" clip-rule="evenodd" d="M166.097,105.361c0-10.197,0-20.611,0-31.38
		c4.127,0.175,8.178,0.343,12.228,0.521c0.984,0.043,2.024-0.072,2.937,0.213c3.437,1.075,5.764,3.388,6.258,6.984
		c0.484,3.535-0.586,6.646-3.716,8.774c-0.803,0.545-1.569,1.143-2.352,1.717c2.945,4.227,5.912,8.486,9.154,13.139
		c-2.404,0-4.395,0.04-6.381-0.04c-0.316-0.013-0.668-0.516-0.913-0.857c-2.433-3.381-4.921-6.727-7.229-10.191
		c-0.962-1.445-2.224-1.166-3.471-1.046c-0.249,0.023-0.579,0.961-0.589,1.482c-0.057,3.035-0.076,6.073-0.005,9.107
		c0.03,1.253-0.425,1.666-1.638,1.596C168.981,105.299,167.575,105.361,166.097,105.361z M172.083,88.786
		c1.358-0.117,2.638-0.291,3.921-0.324c3.261-0.085,4.793-1.35,5.373-4.542c0.362-1.993-0.5-3.773-2.474-4.243
		c-2.188-0.52-4.469-0.637-6.82-0.945C172.083,82.18,172.083,85.405,172.083,88.786z"/>
	<path fill-rule="evenodd" clip-rule="evenodd" d="M180.098,154.263c2.916,4.266,5.851,8.561,8.949,13.098
		c-2.146,0-4.069,0.159-5.943-0.08c-0.738-0.094-1.524-0.964-2.013-1.672c-2.104-3.048-4.086-6.18-6.168-9.244
		c-0.22-0.324-0.782-0.521-1.211-0.578c-1.018-0.131-2.05-0.142-3.307-0.215c0,3.813,0,7.729,0,11.718c-1.977,0-3.723,0-5.588,0
		c0-10.191,0-20.377,0-30.759c1.252,0,2.544-0.03,3.834,0.005c3.456,0.094,6.939-0.018,10.358,0.397
		c2.878,0.35,6.52,2.485,6.864,6.003c0.166,1.696,0.217,3.482-0.129,5.133C185.11,151.103,182.647,152.687,180.098,154.263z
		 M170.75,151.407c2.475-0.554,4.928-0.806,7.132-1.682c2.138-0.85,2.293-3.004,2.081-5.105c-0.176-1.759-1.442-2.68-2.832-2.977
		c-2.04-0.435-4.185-0.384-6.381-0.548C170.75,144.549,170.75,147.77,170.75,151.407z"/>
	<path fill-rule="evenodd" clip-rule="evenodd" d="M135.262,105.024c-2.871,1.693-6.375,0.117-7.368-3.175
		c-0.322-1.069-0.588-2.173-1.071-3.169c-0.21-0.434-0.906-0.9-1.378-0.897c-3.452,0.03-6.902,0.227-10.354,0.25
		c-1.04,0.007-1.553,0.338-1.922,1.275c-0.648,1.642-1.334,3.28-2.169,4.831c-0.288,0.537-1.032,1.08-1.624,1.148
		c-1.424,0.167-2.882,0.055-4.563,0.055c4.102-10.526,8.079-20.734,12.137-31.149c1.675,0,3.598,0.005,5.521-0.002
		c1.655-0.006,1.328,1.6,1.677,2.392c1.634,3.712,2.984,7.55,4.438,11.343c1.542,4.028,3.076,8.059,4.636,12.08
		C133.875,101.696,134.585,103.365,135.262,105.024z M120.102,81.173c-1.54,4.197-2.917,7.947-4.383,11.942c3.065,0,5.772,0,8.752,0
		C122.979,89.039,121.62,85.325,120.102,81.173z"/>
	<path fill-rule="evenodd" clip-rule="evenodd" d="M182.273,194.892c1.909,0,3.337,0.051,4.758-0.018
		c1.123-0.052,1.574,0.311,1.563,1.501c-0.047,5.409,0.119,10.825-0.075,16.229c-0.109,2.998-0.194,6.176-2.34,8.64
		c-2.157,2.477-4.447,4.834-8.121,4.823c-1.847-0.005-3.723,0.258-5.537,0.027c-3.688-0.47-6.222-2.705-8.205-5.769
		c-1.275-1.97-1.71-3.991-1.648-6.317c0.136-5.075,0.055-10.157,0.033-15.236c-0.005-1.266-0.12-2.531-0.184-3.804
		c1.948,0,3.806,0,5.846,0c0,3.232-0.053,6.392,0.013,9.549c0.08,3.93-0.021,7.896,0.469,11.781
		c0.506,4.021,6.247,6.013,9.592,4.302c3.056-1.564,3.833-3.952,3.836-6.968C182.278,207.363,182.273,201.095,182.273,194.892z"/>
	<path fill-rule="evenodd" clip-rule="evenodd" d="M125.33,136.609c2.332,0,4.188,0,6.21,0c0,1.05,0.016,2.03-0.002,3.009
		c-0.105,5.941-0.007,11.896-0.391,17.819c-0.36,5.527-5.545,10.273-11.216,10.273c-2.938,0-5.836,0.071-8.498-1.594
		c-2.651-1.658-4.614-3.792-5.218-6.896c-0.351-1.803-0.496-3.668-0.517-5.508c-0.063-5.672-0.023-11.345-0.023-17.099
		c1.902,0,3.648,0,5.837,0c0,2.886-0.018,5.784,0.004,8.682c0.029,3.965-0.024,7.936,0.176,11.894
		c0.129,2.554,3.351,5.008,5.892,5.253c3.556,0.342,6.221-0.73,7.312-4.231c0.504-1.618,0.403-3.451,0.418-5.188
		C125.359,147.594,125.33,142.165,125.33,136.609z"/>
	<path fill-rule="evenodd" clip-rule="evenodd" d="M112.64,215.565c0,1.705,0,3.47,0,5.233c0,1.699,0,3.399,0,5.177
		c-2.01,0-3.868,0-5.848,0c0-10.356,0-20.719,0-31.35c1.419,0.085,2.903,0.204,4.391,0.26c3.403,0.129,6.81,0.186,10.212,0.351
		c3.041,0.146,6.852,3.618,7.326,6.902c0.606,4.192,0.302,8.224-3.758,10.811c-1.09,0.694-2.341,1.318-3.594,1.539
		C118.546,214.985,115.674,215.209,112.64,215.565z M112.729,199.09c0,4.168,0,7.719,0,11.456c2.406-0.272,4.735-0.393,7-0.839
		c1.843-0.364,2.835-1.939,2.856-3.85c0.008-0.661-0.035-1.325,0.009-1.983c0.1-1.502-0.554-2.69-1.923-3.068
		C118.149,200.108,115.552,199.684,112.729,199.09z"/>
	<path fill-rule="evenodd" clip-rule="evenodd" d="M244.337,221.628c-3.896,4.237-8.71,5.271-14.24,4.502
		c-5.271-0.731-8.747-3.794-10.733-8.364c-1.951-4.486-1.967-9.241-0.142-13.913c1.155-2.954,3.106-5.313,5.727-6.911
		c1.775-1.083,3.91-1.742,5.973-2.16c4.381-0.891,8.501,0.064,12.229,2.531c0.903,0.598,1.525,1.212,0.532,2.5
		c-1.706,2.214-2.276,2.631-4.673,1.171c-2.324-1.415-4.72-1.479-7.22-1.149c-3.588,0.474-7.138,4.085-7.353,7.728
		c-0.198,3.354-0.298,6.715,1.552,9.843c1.32,2.23,3.379,3.215,5.612,3.585c1.886,0.312,3.912-0.098,5.856-0.343
		c0.63-0.079,1.275-0.566,1.781-1.016c1.34-1.189,2.39-1.17,3.619,0.207C243.312,220.346,243.727,220.886,244.337,221.628z"/>
	<path fill-rule="evenodd" clip-rule="evenodd" d="M107.073,280.688c0-7.148,0-14.2,0-21.464c1.222,0,2.422-0.065,3.607,0.04
		c0.345,0.031,0.758,0.486,0.953,0.848c2.333,4.306,4.631,8.63,7.077,13.213c1.856-3.623,3.577-7,5.318-10.367
		c0.521-1.01,1.018-2.047,1.683-2.956c0.298-0.408,0.966-0.678,1.499-0.748c0.917-0.12,1.859-0.033,2.896-0.033
		c0,7.195,0,14.287,0,21.468c-1.059,0-2.076,0-3.356,0c0-4.768,0-9.457,0-14.147c-0.158-0.039-0.316-0.078-0.476-0.117
		c-1.454,2.778-2.876,5.575-4.373,8.33c-1.278,2.354-1.926,3.683-3.749,3.339c-0.436-0.083-0.965-0.424-1.178-0.801
		c-2.05-3.616-4.041-7.266-6.16-11.106c0,4.964,0,9.689,0,14.503C109.657,280.688,108.459,280.688,107.073,280.688z"/>
	<path fill-rule="evenodd" clip-rule="evenodd" d="M169.343,266.992c0,2.217,0,4.434,0,6.649c0,2.31,0,4.618,0,7.029
		c-1.126,0-2.137,0-3.233,0c0-7.095,0-14.142,0-21.279c1.989-0.579,3.349,0.029,4.635,1.792c2.977,4.079,6.196,7.982,9.679,12.418
		c0-5.057,0-9.65,0-14.31c1.439,0,2.527,0,3.728,0c0,7.104,0,14.191,0,21.322c-2.04,0.533-3.461,0.057-4.637-1.929
		c-1.183-1.996-2.878-3.688-4.352-5.513c-1.468-1.817-2.934-3.639-4.414-5.447c-0.252-0.309-0.576-0.56-0.866-0.838
		C169.702,266.923,169.521,266.958,169.343,266.992z"/>
	<path fill-rule="evenodd" clip-rule="evenodd" d="M218.479,280.6c-4.471,0.457-4.062,0.578-6.09-4.799
		c-2.771,0-5.465-0.028-8.157,0.035c-0.368,0.009-0.763,0.443-1.076,0.749c-0.177,0.173-0.247,0.479-0.313,0.738
		c-0.902,3.561-1.393,3.872-5.447,3.264c1.006-2.635,1.985-5.232,2.987-7.823c1.473-3.806,2.979-7.6,4.437-11.411
		c0.713-1.863,3.307-3.118,4.943-2.012c0.851,0.574,1.229,1.942,1.668,3.016c1.414,3.459,2.774,6.94,4.122,10.427
		C216.549,275.365,217.495,277.968,218.479,280.6z M205.025,272.253c2.04,0.104,3.848,0.195,5.863,0.299
		c-1.033-2.786-1.962-5.289-2.975-8.021C206.957,267.088,206.063,269.476,205.025,272.253z"/>
	<path fill-rule="evenodd" clip-rule="evenodd" d="M229.882,278.832c1.194-3.375,1.676-3.585,4.357-2.265
		c1.38,0.681,2.71,1.184,4.347,0.637c1.275-0.426,1.759-1.224,1.828-2.378c0.068-1.08-0.365-1.904-1.464-2.363
		c-1.924-0.801-3.845-1.621-5.704-2.561c-2.012-1.018-3.177-4.303-2.385-6.378c1.826-4.783,8.953-6.457,12.734-2.912
		c0.297,0.279,0.085,1.416-0.234,1.946c-0.272,0.452-1.071,0.888-1.586,0.836c-1.489-0.152-2.956-0.786-4.425-0.768
		c-0.819,0.011-1.955,0.771-2.353,1.512c-0.5,0.935-0.027,1.939,1.177,2.45c1.773,0.75,3.476,1.665,5.226,2.47
		c2.752,1.269,3.753,3.714,2.941,6.639c-1.451,5.229-5.646,5.615-9.979,4.875C232.839,280.312,231.416,279.447,229.882,278.832z"/>
	<path fill-rule="evenodd" clip-rule="evenodd" d="M146.246,259.295c1.306,0,2.499,0,3.777,0c0,7.117,0,14.161,0,21.344
		c-1.195,0-2.427,0-3.777,0C146.246,273.602,146.246,266.517,146.246,259.295z"/>
</g>
</svg>
